<svg width="45" height="16" viewBox="0 0 45 16" fill="none" xmlns="http://www.w3.org/2000/svg">
<g id="MUX 1" clip-path="url(#clip0_262_868)">
<path id="Vector" d="M14.6561 15H12.0561V4.81997L9.2361 15H6.4161L3.5961 4.81997V15H0.996094V1.11997H4.9161L7.8161 11.52L10.7161 1.11997H14.6561V15ZM29.5364 9.95997C29.5364 10.9467 29.3364 11.84 28.9364 12.64C28.5364 13.4267 27.9231 14.0533 27.0964 14.52C26.2831 14.9733 25.2431 15.2 23.9764 15.2C22.2031 15.2 20.8498 14.72 19.9164 13.76C18.9964 12.7867 18.5364 11.5067 18.5364 9.91997V0.719971H20.3364V9.97997C20.3364 11.14 20.6431 12.04 21.2564 12.68C21.8831 13.32 22.8231 13.64 24.0764 13.64C24.9431 13.64 25.6431 13.4867 26.1764 13.18C26.7231 12.86 27.1231 12.4267 27.3764 11.88C27.6298 11.32 27.7564 10.68 27.7564 9.95997V0.719971H29.5364V9.95997ZM44.0053 15H41.9653L38.1853 8.79997L34.3453 15H32.4453L37.1853 7.55997L32.7453 0.719971H34.7453L38.2453 6.31997L41.7653 0.719971H43.6653L39.2453 7.51997L44.0053 15Z" fill="#1D1D1E"/>
</g>
<defs>
<clipPath id="clip0_262_868">
<rect width="45" height="16" fill="white"/>
</clipPath>
</defs>
</svg>
