<svg width="18" height="18" viewBox="0 0 18 18" fill="none" xmlns="http://www.w3.org/2000/svg">
<path id="Vector" d="M16.6712 0H1.32875C0.976344 0 0.63837 0.139992 0.389184 0.389184C0.139992 0.63837 0 0.976344 0 1.32875V16.6712C0 17.0237 0.139992 17.3617 0.389184 17.6108C0.63837 17.86 0.976344 18 1.32875 18H16.6712C17.0237 18 17.3617 17.86 17.6108 17.6108C17.86 17.3617 18 17.0237 18 16.6712V1.32875C18 0.976344 17.86 0.63837 17.6108 0.389184C17.3617 0.139992 17.0237 0 16.6712 0ZM5.36502 15.3337H2.65875V6.73752H5.36502V15.3337ZM4.00998 5.54628C3.70302 5.54454 3.40344 5.4519 3.14904 5.28006C2.89466 5.10822 2.69688 4.86492 2.58066 4.58076C2.46443 4.29666 2.43499 3.98442 2.49602 3.68358C2.55706 3.38274 2.70585 3.10668 2.92361 2.89034C3.14136 2.67397 3.41838 2.52695 3.71958 2.46785C4.02084 2.40874 4.33284 2.44019 4.61622 2.55824C4.8996 2.67628 5.14164 2.87563 5.31186 3.1311C5.48202 3.38658 5.57274 3.68676 5.5725 3.99378C5.57538 4.19928 5.53686 4.40328 5.45928 4.5936C5.38164 4.78392 5.2665 4.95666 5.1207 5.10156C4.97484 5.2464 4.80138 5.36046 4.61058 5.43684C4.41972 5.51328 4.21548 5.55048 4.00998 5.54628ZM15.34 15.3412H12.635V10.645C12.635 9.25998 12.0463 8.83248 11.2862 8.83248C10.4837 8.83248 9.69624 9.43752 9.69624 10.68V15.3412H6.99V6.74376H9.5925V7.935H9.62748C9.88878 7.40628 10.8038 6.5025 12.2 6.5025C13.71 6.5025 15.3412 7.39878 15.3412 10.0238L15.34 15.3412Z" fill="white"/>
</svg>
