<svg width="130" height="16" viewBox="0 0 130 16" fill="none" xmlns="http://www.w3.org/2000/svg">
<path d="M13.9021 15H11.3021V4.82L8.48211 15H5.66211L2.84211 4.82V15H0.242109V1.12H4.16211L7.06211 11.52L9.96211 1.12H13.9021V15ZM19.6424 12.22L18.7024 15H15.9024L20.7424 1.12H24.0824L28.9224 15H26.1224L25.1824 12.22H19.6424ZM22.4024 4.06L20.4624 9.76H24.3424L22.4024 4.06ZM43.0916 11.42C42.5716 12.6067 41.7916 13.54 40.7516 14.22C39.725 14.9 38.5116 15.24 37.1116 15.24C36.165 15.24 35.2783 15.0533 34.4516 14.68C33.6383 14.3067 32.9316 13.7933 32.3316 13.14C31.7316 12.4867 31.2583 11.72 30.9116 10.84C30.565 9.96 30.3916 9.01333 30.3916 8C30.3916 6.98667 30.565 6.04 30.9116 5.16C31.2583 4.28 31.7316 3.51333 32.3316 2.86C32.9316 2.20667 33.6383 1.69333 34.4516 1.32C35.2783 0.946666 36.165 0.76 37.1116 0.76C38.525 0.76 39.7516 1.1 40.7916 1.78C41.845 2.44667 42.625 3.38 43.1316 4.58L40.4916 5.24C40.1716 4.64 39.7183 4.14667 39.1316 3.76C38.5583 3.37333 37.885 3.18 37.1116 3.18C36.5383 3.18 36.005 3.30667 35.5116 3.56C35.0183 3.81333 34.585 4.16 34.2116 4.6C33.8516 5.04 33.565 5.55333 33.3516 6.14C33.1383 6.72667 33.0316 7.34667 33.0316 8C33.0316 8.66667 33.1383 9.29333 33.3516 9.88C33.565 10.4667 33.8516 10.98 34.2116 11.42C34.585 11.86 35.0183 12.2067 35.5116 12.46C36.005 12.7133 36.5383 12.84 37.1116 12.84C37.8716 12.84 38.5383 12.6467 39.1116 12.26C39.6983 11.8733 40.1516 11.38 40.4716 10.78L43.0916 11.42ZM57.0012 15H54.3612V9.14H48.4412V15H45.7812V1.12H48.4412V6.68H54.3612V1.12H57.0012V15ZM62.7596 12.22L61.8196 15H59.0196L63.8596 1.12H67.1996L72.0396 15H69.2396L68.2996 12.22H62.7596ZM65.5196 4.06L63.5796 9.76H67.4596L65.5196 4.06ZM85.5288 8.06C85.5288 9.12667 85.3822 10.0867 85.0888 10.94C84.7955 11.7933 84.3755 12.52 83.8288 13.12C83.2822 13.72 82.6222 14.1867 81.8488 14.52C81.0755 14.84 80.2155 15 79.2688 15H74.1288V1.12H79.2688C80.2288 1.12 81.0955 1.28 81.8688 1.6C82.6422 1.92 83.2955 2.38 83.8288 2.98C84.3755 3.58 84.7955 4.31333 85.0888 5.18C85.3822 6.03333 85.5288 6.99333 85.5288 8.06ZM82.8888 8.04C82.8888 7.53333 82.8355 7.02 82.7288 6.5C82.6355 5.96667 82.4555 5.48667 82.1888 5.06C81.9222 4.62 81.5555 4.26667 81.0888 4C80.6222 3.72 80.0155 3.58 79.2688 3.58H76.7688V12.54H79.2688C80.0555 12.54 80.6822 12.3867 81.1488 12.08C81.6288 11.76 81.9955 11.3733 82.2488 10.92C82.5155 10.4667 82.6888 9.98 82.7688 9.46C82.8488 8.94 82.8888 8.46667 82.8888 8.04ZM94.258 0.779999C95.2314 0.779999 96.1314 0.966666 96.958 1.34C97.798 1.71333 98.518 2.22667 99.118 2.88C99.718 3.53333 100.185 4.3 100.518 5.18C100.865 6.06 101.038 7 101.038 8C101.038 9.01333 100.865 9.96 100.518 10.84C100.185 11.72 99.718 12.4867 99.118 13.14C98.518 13.7933 97.798 14.3067 96.958 14.68C96.1314 15.0533 95.2314 15.24 94.258 15.24C93.2714 15.24 92.358 15.0533 91.518 14.68C90.6914 14.3067 89.978 13.7933 89.378 13.14C88.778 12.4867 88.3047 11.72 87.958 10.84C87.6247 9.96 87.458 9.01333 87.458 8C87.458 7 87.6247 6.06 87.958 5.18C88.3047 4.3 88.778 3.53333 89.378 2.88C89.978 2.22667 90.6914 1.71333 91.518 1.34C92.358 0.966666 93.2714 0.779999 94.258 0.779999ZM94.258 12.74C94.8314 12.74 95.3647 12.62 95.858 12.38C96.3647 12.1267 96.8047 11.7867 97.178 11.36C97.5514 10.92 97.8447 10.4133 98.058 9.84C98.2714 9.26667 98.378 8.65333 98.378 8C98.378 7.36 98.2714 6.75333 98.058 6.18C97.8447 5.60667 97.5514 5.10667 97.178 4.68C96.8047 4.24 96.3647 3.9 95.858 3.66C95.3647 3.40667 94.8314 3.28 94.258 3.28C93.6847 3.28 93.1447 3.40667 92.638 3.66C92.1314 3.9 91.6914 4.24 91.318 4.68C90.9447 5.10667 90.6514 5.60667 90.438 6.18C90.2247 6.75333 90.118 7.36 90.118 8C90.118 8.65333 90.2247 9.26667 90.438 9.84C90.6514 10.4133 90.9447 10.92 91.318 11.36C91.6914 11.7867 92.1314 12.1267 92.638 12.38C93.1447 12.62 93.6847 12.74 94.258 12.74ZM115.29 9.96C115.29 10.9467 115.09 11.84 114.69 12.64C114.29 13.4267 113.677 14.0533 112.85 14.52C112.037 14.9733 110.997 15.2 109.73 15.2C107.957 15.2 106.604 14.72 105.67 13.76C104.75 12.7867 104.29 11.5067 104.29 9.92V0.719999H106.09V9.98C106.09 11.14 106.397 12.04 107.01 12.68C107.637 13.32 108.577 13.64 109.83 13.64C110.697 13.64 111.397 13.4867 111.93 13.18C112.477 12.86 112.877 12.4267 113.13 11.88C113.384 11.32 113.51 10.68 113.51 9.96V0.719999H115.29V9.96ZM129.759 15H127.719L123.939 8.8L120.099 15H118.199L122.939 7.56L118.499 0.719999H120.499L123.999 6.32L127.519 0.719999H129.419L124.999 7.52L129.759 15Z" fill="#1D1D1E"/>
</svg>
